<?xml version="1.0" encoding="UTF-8" standalone="no"?>
<!DOCTYPE svg PUBLIC "-//W3C//DTD SVG 1.1//EN" "http://www.w3.org/Graphics/SVG/1.1/DTD/svg11.dtd">
<svg width="100%" height="100%" viewBox="0 0 64 64" version="1.1" xmlns="http://www.w3.org/2000/svg" xmlns:xlink="http://www.w3.org/1999/xlink" xml:space="preserve" xmlns:serif="http://www.serif.com/" style="fill-rule:evenodd;clip-rule:evenodd;stroke-linejoin:round;stroke-miterlimit:2;">
    <g transform="matrix(1.154701,0,0,1.154701,-4.950417,-4.950417)">
        <g transform="matrix(0.07098,-0.122941,0.134101,0.077423,-122.724946,151.839953)">
            <path d="M1276.04,271.726C1276.04,271.726 1278.575,444.238 1295.929,460.148C1313.284,476.059 1501.455,478.383 1501.455,478.383C1501.455,478.383 1313.284,480.707 1295.929,496.617C1278.575,512.527 1276.04,685.039 1276.04,685.039C1276.04,685.039 1273.505,512.527 1256.15,496.617C1238.796,480.707 1050.625,478.383 1050.625,478.383C1050.625,478.383 1238.796,476.059 1256.15,460.148C1273.505,444.238 1276.04,271.726 1276.04,271.726Z" style="fill:rgb(161,3,16);"/>
        </g>
        <g transform="matrix(0.056784,-0.098353,0.107281,0.061938,-91.779957,127.871963)">
            <path d="M1276.04,271.726C1276.04,271.726 1278.575,444.238 1295.929,460.148C1313.284,476.059 1501.455,478.383 1501.455,478.383C1501.455,478.383 1313.284,480.707 1295.929,496.617C1278.575,512.527 1276.04,685.039 1276.04,685.039C1276.04,685.039 1273.505,512.527 1256.15,496.617C1238.796,480.707 1050.625,478.383 1050.625,478.383C1050.625,478.383 1238.796,476.059 1256.15,460.148C1273.505,444.238 1276.04,271.726 1276.04,271.726Z" style="fill:rgb(64,13,0);"/>
        </g>
    </g>
</svg>
