<?xml version="1.0" encoding="UTF-8" standalone="no"?>
<!DOCTYPE svg PUBLIC "-//W3C//DTD SVG 1.1//EN" "http://www.w3.org/Graphics/SVG/1.1/DTD/svg11.dtd">
<svg width="100%" height="100%" viewBox="0 0 256 233" version="1.1" xmlns="http://www.w3.org/2000/svg" xmlns:xlink="http://www.w3.org/1999/xlink" xml:space="preserve" xmlns:serif="http://www.serif.com/" style="fill-rule:evenodd;clip-rule:evenodd;stroke-linejoin:round;stroke-miterlimit:2;">
    <g transform="matrix(0.52863,-0.094746,0.079028,0.45556,-59.766192,-21.113572)">
        <path d="M170.818,206.777C179.413,171.625 196.051,143.21 214.965,125.955C235.385,107.325 258.811,100.173 281.625,104.918C302.074,109.171 320.214,122.604 333.684,143.884C352.511,129.321 373.453,124.016 393.902,128.269C416.716,133.014 436.656,149.184 450.442,174.928C463.211,198.773 470.607,232.186 468.49,268.686C472.547,269.615 476.548,270.923 480.472,272.608C502.241,281.953 519.497,301.962 529.284,330.139C539.942,360.824 541.337,403.015 528.394,444.957C515.451,486.899 491.39,518.162 466.503,533.587C447.048,545.646 426.673,549.066 407.614,544.051C406.756,547.185 405.814,550.227 404.792,553.169C394.253,583.513 375.596,604.974 352.154,615.038C328.711,625.102 302.723,622.807 278.113,607.553C272.127,603.842 266.193,599.301 260.437,593.97C253.482,596.657 246.589,598.531 239.887,599.603C212.338,604.009 187.252,595.682 168.141,576.768C149.03,557.854 137.722,530.161 136.617,497.395C136.505,494.083 136.507,490.703 136.624,487.267C121.625,482.191 107.674,471.816 95.871,456.505C76.957,431.97 63.413,392.886 63.413,348.252C63.413,303.618 76.957,264.535 95.871,239.999C113.238,217.47 135.256,205.629 158.421,205.629C162.597,205.629 166.737,206.014 170.818,206.777Z" style="fill:rgb(72,149,222);"/>
    </g>
    <g transform="matrix(0.842256,0,0,0.464272,-189.745291,65.152091)">
        <path d="M443.411,16.941C448.629,16.941 452.859,24.615 452.859,34.082L452.859,34.09C452.859,43.557 448.629,51.231 443.411,51.231L311.099,51.231C305.881,51.231 301.651,43.557 301.651,34.09L301.651,34.082C301.651,24.615 305.881,16.941 311.099,16.941L443.411,16.941ZM443.411,92.378C448.629,92.378 452.859,100.052 452.859,109.518L452.859,109.526C452.859,118.993 448.629,126.667 443.411,126.667L311.099,126.667C305.881,126.667 301.651,118.993 301.651,109.526L301.651,109.518C301.651,100.052 305.881,92.378 311.099,92.378L443.411,92.378ZM443.411,167.814C448.629,167.814 452.859,175.488 452.859,184.954L452.859,184.963C452.859,194.429 448.629,202.103 443.411,202.103L311.099,202.103C305.881,202.103 301.651,194.429 301.651,184.963L301.651,184.954C301.651,175.488 305.881,167.814 311.099,167.814L443.411,167.814Z" style="fill:rgb(22,10,64);"/>
    </g>
</svg>
