<?xml version="1.0" encoding="UTF-8" standalone="no"?>
<!DOCTYPE svg PUBLIC "-//W3C//DTD SVG 1.1//EN" "http://www.w3.org/Graphics/SVG/1.1/DTD/svg11.dtd">
<svg width="100%" height="100%" viewBox="0 0 64 64" version="1.1" xmlns="http://www.w3.org/2000/svg" xmlns:xlink="http://www.w3.org/1999/xlink" xml:space="preserve" xmlns:serif="http://www.serif.com/" style="fill-rule:evenodd;clip-rule:evenodd;stroke-linejoin:round;stroke-miterlimit:2;">
    <g transform="matrix(0.213027,0,0,0.112179,-300.076561,-34.046227)">
        <path d="M1572.716,648.9C1506.901,614.566 1408.632,588.757 1408.632,588.757C1408.632,588.757 1506.918,562.945 1572.732,528.607C1574.308,550.693 1575.278,571.351 1575.278,588.757C1575.278,606.103 1574.301,626.769 1572.716,648.9Z" style="fill:rgb(166,13,26);"/>
    </g>
    <g transform="matrix(-0.106513,0,0,0.112179,214.03828,-34.046227)">
        <path d="M1709.063,874.016C1709.063,874.016 1665.667,725.048 1615.595,677.505C1565.523,629.962 1408.632,588.757 1408.632,588.757C1408.632,588.757 1565.523,547.553 1615.595,500.01C1665.667,452.467 1709.063,303.499 1709.063,303.499C1709.063,303.499 1652.733,493.671 1652.733,588.757C1652.733,683.183 1709.063,874.016 1709.063,874.016Z" style="fill:rgb(242,96,12);"/>
    </g>
</svg>
