<?xml version="1.0" encoding="UTF-8" standalone="no"?>
<!DOCTYPE svg PUBLIC "-//W3C//DTD SVG 1.1//EN" "http://www.w3.org/Graphics/SVG/1.1/DTD/svg11.dtd">
<svg width="100%" height="100%" viewBox="0 0 64 64" version="1.1" xmlns="http://www.w3.org/2000/svg" xmlns:xlink="http://www.w3.org/1999/xlink" xml:space="preserve" xmlns:serif="http://www.serif.com/" style="fill-rule:evenodd;clip-rule:evenodd;stroke-linejoin:round;stroke-miterlimit:2;">
    <g transform="matrix(-0.213027,0,0,0.112179,364.076561,-34.046227)">
        <path d="M1558.943,304.147C1558.88,303.72 1558.848,303.499 1558.848,303.499C1558.848,303.499 1558.88,303.719 1558.943,304.147ZM1558.943,304.147C1560.524,314.82 1581.51,454.297 1605.582,500.01C1630.618,547.553 1709.063,588.757 1709.063,588.757C1709.063,588.757 1630.618,629.962 1605.582,677.505C1581.315,723.587 1560.184,864.956 1558.909,873.601C1560.354,863.743 1587.013,680.624 1587.013,588.757C1587.013,496.904 1560.73,316.32 1558.943,304.147ZM1558.909,873.601C1558.868,873.876 1558.848,874.016 1558.848,874.016C1558.848,874.016 1558.868,873.875 1558.909,873.601ZM1572.716,648.9C1506.901,614.566 1408.632,588.757 1408.632,588.757C1408.632,588.757 1506.918,562.945 1572.732,528.607C1574.308,550.693 1575.278,571.351 1575.278,588.757C1575.278,606.103 1574.301,626.769 1572.716,648.9Z" style="fill:rgb(166,13,26);"/>
    </g>
    <g transform="matrix(0.106513,0,0,0.112179,-150.03828,-34.046227)">
        <path d="M1709.063,874.016C1709.063,874.016 1665.667,725.048 1615.595,677.505C1565.523,629.962 1408.632,588.757 1408.632,588.757C1408.632,588.757 1565.523,547.553 1615.595,500.01C1665.667,452.467 1709.063,303.499 1709.063,303.499C1709.063,303.499 1652.733,493.671 1652.733,588.757C1652.733,683.183 1709.063,874.016 1709.063,874.016Z" style="fill:rgb(242,96,12);"/>
    </g>
</svg>
