<?xml version="1.0" encoding="UTF-8" standalone="no"?>
<!DOCTYPE svg PUBLIC "-//W3C//DTD SVG 1.1//EN" "http://www.w3.org/Graphics/SVG/1.1/DTD/svg11.dtd">
<svg width="100%" height="100%" viewBox="0 0 128 116" version="1.1" xmlns="http://www.w3.org/2000/svg" xmlns:xlink="http://www.w3.org/1999/xlink" xml:space="preserve" xmlns:serif="http://www.serif.com/" style="fill-rule:evenodd;clip-rule:evenodd;stroke-linejoin:round;stroke-miterlimit:2;">
    <g transform="matrix(0.938895,0,0,0.932476,3.910628,3.916599)">
        <g transform="matrix(0.69544,0,0,0.670777,-24.701684,-0.028346)">
            <path d="M35.519,87.097C35.519,76.183 38.258,66.305 42.623,59.018C47.944,50.136 55.639,44.558 64.444,42.921C66.031,42.626 67.626,42.464 69.221,42.435C70.49,29.885 75.199,19.056 81.407,11.857C88.11,4.085 96.607,0 105.547,0C113.561,0 121.219,3.282 127.547,9.56C133.876,3.282 141.534,0 149.547,0C158.488,0 166.985,4.085 173.688,11.857C179.896,19.056 184.605,29.885 185.874,42.435C187.469,42.464 189.064,42.626 190.651,42.921C199.455,44.558 207.151,50.136 212.472,59.018C218.266,68.69 221.193,82.925 218.657,98.089C216.121,113.253 208.753,125.574 200.17,132.574C193.461,138.045 185.911,140.647 178.383,140.29C178.235,141.415 178.05,142.515 177.829,143.587C175.547,154.641 169.675,163.25 161.337,168.326C152.999,173.401 142.992,174.458 132.772,171.014C130.286,170.176 127.772,169.053 125.282,167.648C122.791,169.053 120.278,170.176 117.791,171.014C107.571,174.458 97.564,173.401 89.226,168.326C80.888,163.25 75.016,154.641 72.735,143.587C72.504,142.469 72.313,141.321 72.162,140.145C66.173,139.481 60.281,136.942 54.925,132.574C46.342,125.574 38.974,113.253 36.438,98.089C35.813,94.351 35.519,90.669 35.519,87.097ZM86.288,66.98C84.805,65.05 83.196,63.374 81.502,61.993C77.012,58.331 71.92,56.698 66.904,57.631C61.887,58.563 57.632,61.934 54.601,66.994C50.382,74.037 48.543,84.453 50.389,95.495C52.236,106.538 57.343,115.662 63.593,120.759C68.083,124.421 73.175,126.054 78.191,125.122C82.141,124.387 85.619,122.141 88.4,118.748C85.814,126.439 85.271,134.083 86.577,140.411C87.947,147.048 91.302,152.343 96.309,155.39C101.316,158.438 107.342,158.854 113.479,156.786C117.463,155.444 121.516,153.023 125.282,149.655C129.047,153.023 133.1,155.444 137.084,156.786C143.221,158.854 149.247,158.438 154.254,155.39C159.261,152.343 162.616,147.048 163.986,140.411C165.778,131.728 164.089,120.565 158.416,110.207C152.744,99.848 144.42,92.724 136.392,90.019C132.563,88.729 128.985,88.083 125.282,88.083C121.578,88.083 118,88.729 114.171,90.019C107.004,92.434 99.601,98.371 94.06,106.986C95.559,101.148 95.889,94.331 94.706,87.257C94.029,83.213 92.916,79.426 91.469,76C91.608,76.169 91.748,76.336 91.889,76.5C95.708,80.928 100.454,83.469 105.547,83.469C110.641,83.469 115.387,80.928 119.206,76.5C123.344,71.701 126.398,64.625 127.547,56.435C128.697,64.625 131.751,71.701 135.889,76.5C139.708,80.928 144.454,83.469 149.547,83.469C154.641,83.469 159.387,80.928 163.206,76.5C163.347,76.336 163.487,76.169 163.626,76C162.179,79.426 161.066,83.213 160.389,87.257C158.543,98.299 160.382,108.715 164.601,115.758C167.632,120.818 171.887,124.189 176.904,125.122C181.92,126.054 187.012,124.421 191.502,120.759C197.752,115.662 202.859,106.538 204.706,95.495C206.552,84.453 204.713,74.037 200.494,66.994C197.463,61.934 193.208,58.563 188.191,57.631C183.175,56.698 178.083,58.331 173.593,61.993C171.899,63.374 170.29,65.05 168.807,66.98C170.853,61.816 172.047,55.728 172.047,49.203C172.047,37.99 168.521,28.069 163.206,21.905C159.387,17.477 154.641,14.936 149.547,14.936C144.454,14.936 139.708,17.477 135.889,21.905C131.751,26.704 128.697,33.78 127.547,41.97C126.398,33.78 123.344,26.704 119.206,21.905C115.387,17.477 110.641,14.936 105.547,14.936C100.454,14.936 95.708,17.477 91.889,21.905C86.574,28.069 83.047,37.99 83.047,49.203C83.047,55.728 84.242,61.816 86.288,66.98Z" style="fill:rgb(255,111,10);"/>
        </g>
        <g transform="matrix(0.69544,0,0,0.670777,-24.701684,-0.028346)">
            <path d="M183.365,146.349C180.494,158.536 173.725,167.991 164.37,173.686C154.604,179.63 142.891,180.958 130.921,176.925C129.049,176.294 127.163,175.522 125.282,174.609C123.4,175.522 121.514,176.294 119.642,176.925C107.672,180.958 95.959,179.63 86.193,173.686C76.628,167.863 69.767,158.11 67.011,145.524C61.526,144.18 56.174,141.498 51.222,137.459C41.671,129.671 33.357,116.026 30.535,99.151C29.849,95.052 29.528,91.014 29.528,87.097C29.528,74.901 32.656,63.881 37.535,55.738C43.823,45.241 52.981,38.738 63.387,36.804C63.578,36.768 63.769,36.734 63.96,36.702C66.018,24.879 70.871,14.754 76.942,7.714C84.872,-1.482 94.97,-6.215 105.547,-6.215C113.373,-6.215 120.931,-3.622 127.547,1.447C134.164,-3.622 141.722,-6.215 149.547,-6.215C160.125,-6.215 170.223,-1.482 178.153,7.714C184.224,14.754 189.077,24.879 191.134,36.702C191.326,36.734 191.517,36.768 191.708,36.804C202.114,38.738 211.272,45.241 217.56,55.738C224.002,66.49 227.38,82.294 224.56,99.151C221.738,116.026 213.424,129.671 203.873,137.459C197.509,142.649 190.489,145.604 183.365,146.349ZM35.519,87.097C35.519,90.669 35.813,94.351 36.438,98.089C38.974,113.253 46.342,125.574 54.925,132.574C60.281,136.942 66.173,139.481 72.162,140.145C72.313,141.321 72.504,142.469 72.735,143.587C75.016,154.641 80.888,163.25 89.226,168.326C97.564,173.401 107.571,174.458 117.791,171.014C120.278,170.176 122.791,169.053 125.282,167.648C127.772,169.053 130.286,170.176 132.772,171.014C142.992,174.458 152.999,173.401 161.337,168.326C169.675,163.25 175.547,154.641 177.829,143.587C178.05,142.515 178.235,141.415 178.383,140.29C185.911,140.647 193.461,138.045 200.17,132.574C208.753,125.574 216.121,113.253 218.657,98.089C221.193,82.925 218.266,68.69 212.472,59.018C207.151,50.136 199.455,44.558 190.651,42.921C189.064,42.626 187.469,42.464 185.874,42.435C184.605,29.885 179.896,19.056 173.688,11.857C166.985,4.085 158.488,0 149.547,0C141.534,0 133.876,3.282 127.547,9.56C121.219,3.282 113.561,0 105.547,0C96.607,0 88.11,4.085 81.407,11.857C75.199,19.056 70.49,29.885 69.221,42.435C67.626,42.464 66.031,42.626 64.444,42.921C55.639,44.558 47.944,50.136 42.623,59.018C38.258,66.305 35.519,76.183 35.519,87.097Z" style="fill:rgb(72,149,222);"/>
        </g>
        <g transform="matrix(0.69544,0,0,0.670777,-24.701684,-0.028346)">
            <path d="M86.288,66.98C84.805,65.05 83.196,63.374 81.502,61.993C77.012,58.331 71.92,56.698 66.904,57.631C61.887,58.563 57.632,61.934 54.601,66.994C50.382,74.037 48.543,84.453 50.389,95.495C52.236,106.538 57.343,115.662 63.593,120.759C68.083,124.421 73.175,126.054 78.191,125.122C82.141,124.387 85.619,122.141 88.4,118.748C85.814,126.439 85.271,134.083 86.577,140.411C87.947,147.048 91.302,152.343 96.309,155.39C101.316,158.438 107.342,158.854 113.479,156.786C117.463,155.444 121.516,153.023 125.282,149.655C129.047,153.023 133.1,155.444 137.084,156.786C143.221,158.854 149.247,158.438 154.254,155.39C159.261,152.343 162.616,147.048 163.986,140.411C165.778,131.728 164.089,120.565 158.416,110.207C152.744,99.848 144.42,92.724 136.392,90.019C132.563,88.729 128.985,88.083 125.282,88.083C121.578,88.083 118,88.729 114.171,90.019C107.004,92.434 99.601,98.371 94.06,106.986C95.559,101.148 95.889,94.331 94.706,87.257C94.029,83.213 92.916,79.426 91.469,76C91.608,76.169 91.748,76.336 91.889,76.5C95.708,80.928 100.454,83.469 105.547,83.469C110.641,83.469 115.387,80.928 119.206,76.5C123.344,71.701 126.398,64.625 127.547,56.435C128.697,64.625 131.751,71.701 135.889,76.5C139.708,80.928 144.454,83.469 149.547,83.469C154.641,83.469 159.387,80.928 163.206,76.5C163.347,76.336 163.487,76.169 163.626,76C162.179,79.426 161.066,83.213 160.389,87.257C158.543,98.299 160.382,108.715 164.601,115.758C167.632,120.818 171.887,124.189 176.904,125.122C181.92,126.054 187.012,124.421 191.502,120.759C197.752,115.662 202.859,106.538 204.706,95.495C206.552,84.453 204.713,74.037 200.494,66.994C197.463,61.934 193.208,58.563 188.191,57.631C183.175,56.698 178.083,58.331 173.593,61.993C171.899,63.374 170.29,65.05 168.807,66.98C170.853,61.816 172.047,55.728 172.047,49.203C172.047,37.99 168.521,28.069 163.206,21.905C159.387,17.477 154.641,14.936 149.547,14.936C144.454,14.936 139.708,17.477 135.889,21.905C131.751,26.704 128.697,33.78 127.547,41.97C126.398,33.78 123.344,26.704 119.206,21.905C115.387,17.477 110.641,14.936 105.547,14.936C100.454,14.936 95.708,17.477 91.889,21.905C86.574,28.069 83.047,37.99 83.047,49.203C83.047,55.728 84.242,61.816 86.288,66.98ZM149.547,17.572C160.586,17.572 169.547,31.745 169.547,49.203C169.547,66.66 160.586,80.833 149.547,80.833C138.509,80.833 129.547,66.66 129.547,49.203C129.547,31.745 138.509,17.572 149.547,17.572ZM187.757,60.226C198.628,62.247 205.119,77.846 202.244,95.038C199.368,112.23 188.209,124.547 177.338,122.526C166.467,120.505 159.976,104.906 162.851,87.714C165.727,70.522 176.886,58.205 187.757,60.226ZM67.338,60.226C78.209,58.205 89.368,70.522 92.244,87.714C95.119,104.906 88.628,120.505 77.757,122.526C66.886,124.547 55.727,112.23 52.851,95.038C49.976,77.846 56.467,62.247 67.338,60.226ZM105.547,17.572C116.586,17.572 125.547,31.745 125.547,49.203C125.547,66.66 116.586,80.833 105.547,80.833C94.509,80.833 85.547,66.66 85.547,49.203C85.547,31.745 94.509,17.572 105.547,17.572ZM125.282,146.117C121.345,150.041 116.994,152.835 112.718,154.276C107.302,156.101 101.978,155.798 97.559,153.108C93.14,150.418 90.229,145.708 89.02,139.85C87.338,131.703 88.99,121.243 94.312,111.525C99.634,101.806 107.4,95.068 114.932,92.53C118.5,91.328 121.832,90.718 125.282,90.718C128.731,90.718 132.064,91.328 135.631,92.53C143.164,95.068 150.93,101.806 156.251,111.525C161.573,121.243 163.225,131.703 161.543,139.85C160.334,145.708 157.423,150.418 153.004,153.108C148.585,155.798 143.261,156.101 137.845,154.276C133.569,152.835 129.218,150.041 125.282,146.117Z" style="fill:rgb(161,3,16);"/>
        </g>
        <g transform="matrix(0.69544,0,0,0.670777,-24.701684,-0.028346)">
            <path d="M149.547,17.572C160.586,17.572 169.547,31.745 169.547,49.203C169.547,66.66 160.586,80.833 149.547,80.833C138.509,80.833 129.547,66.66 129.547,49.203C129.547,31.745 138.509,17.572 149.547,17.572ZM187.757,60.226C198.628,62.247 205.119,77.846 202.244,95.038C199.368,112.23 188.209,124.547 177.338,122.526C166.467,120.505 159.976,104.906 162.851,87.714C165.727,70.522 176.886,58.205 187.757,60.226ZM67.338,60.226C78.209,58.205 89.368,70.522 92.244,87.714C95.119,104.906 88.628,120.505 77.757,122.526C66.886,124.547 55.727,112.23 52.851,95.038C49.976,77.846 56.467,62.247 67.338,60.226ZM105.547,17.572C116.586,17.572 125.547,31.745 125.547,49.203C125.547,66.66 116.586,80.833 105.547,80.833C94.509,80.833 85.547,66.66 85.547,49.203C85.547,31.745 94.509,17.572 105.547,17.572ZM125.282,146.117C121.345,150.041 116.994,152.835 112.718,154.276C107.302,156.101 101.978,155.798 97.559,153.108C93.14,150.418 90.229,145.708 89.02,139.85C87.338,131.703 88.99,121.243 94.312,111.525C99.634,101.806 107.4,95.068 114.932,92.53C118.5,91.328 121.832,90.718 125.282,90.718C128.731,90.718 132.064,91.328 135.631,92.53C143.164,95.068 150.93,101.806 156.251,111.525C161.573,121.243 163.225,131.703 161.543,139.85C160.334,145.708 157.423,150.418 153.004,153.108C148.585,155.798 143.261,156.101 137.845,154.276C133.569,152.835 129.218,150.041 125.282,146.117Z" style="fill:rgb(255,111,10);"/>
        </g>
    </g>
</svg>
