<?xml version="1.0" encoding="UTF-8" standalone="no"?>
<!DOCTYPE svg PUBLIC "-//W3C//DTD SVG 1.1//EN" "http://www.w3.org/Graphics/SVG/1.1/DTD/svg11.dtd">
<svg width="100%" height="100%" viewBox="0 0 128 116" version="1.1" xmlns="http://www.w3.org/2000/svg" xmlns:xlink="http://www.w3.org/1999/xlink" xml:space="preserve" xmlns:serif="http://www.serif.com/" style="fill-rule:evenodd;clip-rule:evenodd;stroke-linejoin:round;stroke-miterlimit:2;">
    <g transform="matrix(0.264315,-0.047373,0.039514,0.22778,-29.882948,-10.556902)">
        <path d="M170.818,206.777C179.413,171.625 196.051,143.21 214.965,125.955C235.385,107.325 258.811,100.173 281.625,104.918C302.074,109.171 320.214,122.604 333.684,143.884C352.511,129.321 373.453,124.016 393.902,128.269C416.716,133.014 436.656,149.184 450.442,174.928C463.211,198.773 470.607,232.186 468.49,268.686C472.547,269.615 476.548,270.923 480.472,272.608C502.241,281.953 519.497,301.962 529.284,330.139C539.942,360.824 541.337,403.015 528.394,444.957C515.451,486.899 491.39,518.162 466.503,533.587C447.048,545.646 426.673,549.066 407.614,544.051C406.756,547.185 405.814,550.227 404.792,553.169C394.253,583.513 375.596,604.974 352.154,615.038C328.711,625.102 302.723,622.807 278.113,607.553C272.127,603.842 266.193,599.301 260.437,593.97C253.482,596.657 246.589,598.531 239.887,599.603C212.338,604.009 187.252,595.682 168.141,576.768C149.03,557.854 137.722,530.161 136.617,497.395C136.505,494.083 136.507,490.703 136.624,487.267C121.625,482.191 107.674,471.816 95.871,456.505C76.957,431.97 63.413,392.886 63.413,348.252C63.413,303.618 76.957,264.535 95.871,239.999C113.238,217.47 135.256,205.629 158.421,205.629C162.597,205.629 166.737,206.014 170.818,206.777ZM203.895,285.902C200.933,279.606 197.543,273.966 193.811,269.126C183.916,256.289 171.62,248.925 158.421,248.925C145.222,248.925 132.926,256.289 123.031,269.126C109.258,286.992 100.12,315.75 100.12,348.252C100.12,380.754 109.258,409.512 123.031,427.379C132.926,440.215 145.222,447.579 158.421,447.579C168.814,447.579 178.648,443.013 187.191,434.804C177.311,455.385 172.663,476.919 173.296,495.675C173.959,515.349 180.261,532.244 191.736,543.601C203.212,554.959 218.412,559.345 234.955,556.699C245.694,554.981 257.07,550.221 268.115,542.604C276.286,554.217 285.595,563.28 295.189,569.226C309.967,578.386 325.522,580.396 339.599,574.353C353.675,568.31 364.496,554.976 370.825,536.756C379.104,512.92 379.556,480.158 369.503,447.578C359.449,414.999 341.248,390.245 321.916,378.262C312.695,372.547 303.841,368.802 294.392,366.837C284.942,364.871 275.536,364.819 265.214,366.469C245.895,369.559 224.471,382.577 206.654,404.23C212.971,388.361 216.721,369.075 216.721,348.252C216.721,336.349 215.496,324.948 213.266,314.401C213.548,314.957 213.834,315.507 214.125,316.05C221.98,330.718 233.006,340.489 246.004,343.192C259.002,345.895 272.196,341.162 283.831,330.547C296.438,319.045 307.251,300.466 313.679,277.697C313.118,301.686 317.891,323.507 326.403,339.401C334.258,354.069 345.283,363.84 358.282,366.543C371.28,369.246 384.474,364.513 396.108,353.898C396.539,353.505 396.968,353.104 397.394,352.695C392.24,361.707 387.783,371.926 384.331,383.111C374.906,413.653 375.154,444.363 382.915,466.707C388.491,482.762 397.91,494.642 410.313,499.966C422.716,505.291 436.406,503.332 449.427,495.261C467.55,484.028 484.475,460.691 493.9,430.149C503.325,399.607 503.077,368.897 495.316,346.552C489.74,330.498 480.321,318.618 467.918,313.293C455.515,307.969 441.825,309.928 428.804,317.999C423.894,321.042 419.073,324.973 414.464,329.696C421.889,316.039 427.535,299.294 430.32,280.666C435.105,248.658 430.34,218.465 419.407,198.05C411.552,183.381 400.527,173.611 387.528,170.908C374.53,168.204 361.336,172.938 349.701,183.553C337.094,195.055 326.282,213.634 319.853,236.403C320.414,212.413 315.641,190.593 307.129,174.699C299.274,160.03 288.249,150.26 275.25,147.557C262.252,144.853 249.058,149.587 237.424,160.202C221.23,174.976 207.997,201.425 203.212,233.433C200.428,252.061 200.877,270.074 203.895,285.902ZM465.702,320.473C492.579,332.011 502.486,379.984 487.813,427.535C473.139,475.087 439.406,504.325 412.529,492.787C385.652,481.249 375.745,433.275 390.418,385.724C405.092,338.173 438.825,308.935 465.702,320.473ZM386.403,178.432C414.571,184.29 431.39,229.505 423.94,279.339C416.49,329.174 387.574,364.877 359.407,359.019C331.239,353.161 314.42,307.946 321.87,258.111C329.32,208.277 358.236,172.574 386.403,178.432ZM269.625,532.504C257.905,541.618 245.61,547.284 234.084,549.128C219.484,551.463 206.028,547.772 195.9,537.748C185.772,527.724 180.354,512.736 179.768,495.371C178.954,471.222 187.632,442.239 205.359,417.32C223.087,392.401 245.78,377.288 266.084,374.041C275.7,372.503 284.464,372.53 293.267,374.361C302.07,376.192 310.313,379.701 318.903,385.026C337.041,396.268 353.983,419.624 363.416,450.192C372.848,480.76 372.598,511.495 364.83,533.859C359.245,549.941 349.807,561.84 337.383,567.173C324.959,572.507 311.245,570.547 298.202,562.463C287.906,556.081 277.995,545.796 269.625,532.504ZM158.421,256.566C187.023,256.566 210.244,297.649 210.244,348.252C210.244,398.855 187.023,439.938 158.421,439.938C129.819,439.938 106.598,398.855 106.598,348.252C106.598,297.649 129.819,256.566 158.421,256.566ZM274.126,155.081C302.293,160.939 319.112,206.154 311.663,255.988C304.213,305.823 275.296,341.526 247.129,335.668C218.962,329.81 202.142,284.594 209.592,234.76C217.042,184.926 245.958,149.223 274.126,155.081Z" style="fill:rgb(72,149,222);"/>
    </g>
</svg>
