<?xml version="1.0" encoding="UTF-8" standalone="no"?>
<!DOCTYPE svg PUBLIC "-//W3C//DTD SVG 1.1//EN" "http://www.w3.org/Graphics/SVG/1.1/DTD/svg11.dtd">
<svg width="100%" height="100%" viewBox="0 0 64 64" version="1.1" xmlns="http://www.w3.org/2000/svg" xmlns:xlink="http://www.w3.org/1999/xlink" xml:space="preserve" xmlns:serif="http://www.serif.com/" style="fill-rule:evenodd;clip-rule:evenodd;stroke-linejoin:round;stroke-miterlimit:2;">
    <g transform="matrix(0.929001,0,0,0.929001,2.271954,2.226857)">
        <path d="M39.779,0.21L40.565,8.708C42.063,9.259 43.506,9.953 44.871,10.781L52.004,6.098C52.953,5.475 54.202,5.569 55.047,6.327C57.895,8.884 60.298,11.898 62.158,15.244C62.709,16.236 62.523,17.475 61.704,18.261L55.551,24.173C56.054,25.689 56.41,27.25 56.614,28.833L64.724,31.49C65.802,31.844 66.507,32.879 66.441,34.012C66.218,37.833 65.36,41.591 63.903,45.131C63.471,46.18 62.387,46.807 61.262,46.658L52.803,45.533C51.932,46.871 50.934,48.123 49.823,49.269L52.802,57.267C53.198,58.33 52.828,59.527 51.901,60.182C48.774,62.39 45.301,64.062 41.625,65.13C40.535,65.447 39.369,64.99 38.785,64.017L34.39,56.702C32.8,56.855 31.2,56.855 29.61,56.702L25.215,64.017C24.631,64.99 23.465,65.447 22.375,65.13C18.699,64.062 15.226,62.39 12.099,60.182C11.172,59.527 10.802,58.33 11.198,57.267L14.177,49.27C13.066,48.123 12.068,46.871 11.198,45.533L2.738,46.658C1.613,46.807 0.529,46.18 0.097,45.131C-1.36,41.591 -2.218,37.833 -2.441,34.012C-2.507,32.879 -1.802,31.844 -0.724,31.49L7.386,28.833C7.59,27.249 7.946,25.689 8.449,24.174L2.296,18.261C1.477,17.475 1.291,16.236 1.842,15.244C3.702,11.898 6.105,8.884 8.953,6.327C9.798,5.569 11.047,5.475 11.996,6.098L19.129,10.781C20.495,9.953 21.937,9.259 23.435,8.708L24.221,0.21C24.326,-0.92 25.178,-1.838 26.297,-2.025C30.073,-2.658 33.927,-2.658 37.703,-2.025C38.822,-1.838 39.674,-0.92 39.779,0.21ZM32,21.127C25.999,21.127 21.127,25.999 21.127,32C21.127,38.001 25.999,42.873 32,42.873C38.001,42.873 42.873,38.001 42.873,32C42.873,25.999 38.001,21.127 32,21.127Z" style="fill:rgb(161,3,16);"/>
    </g>
</svg>
