<?xml version="1.0" encoding="UTF-8" standalone="no"?>
<!DOCTYPE svg PUBLIC "-//W3C//DTD SVG 1.1//EN" "http://www.w3.org/Graphics/SVG/1.1/DTD/svg11.dtd">
<svg width="100%" height="100%" viewBox="0 0 64 64" version="1.1" xmlns="http://www.w3.org/2000/svg" xmlns:xlink="http://www.w3.org/1999/xlink" xml:space="preserve" xmlns:serif="http://www.serif.com/" style="fill-rule:evenodd;clip-rule:evenodd;stroke-linejoin:round;stroke-miterlimit:2;">
    <g transform="matrix(0.929001,0,0,0.929001,2.271954,2.226857)">
        <path d="M39.779,0.21L40.565,8.708C42.063,9.259 43.506,9.953 44.871,10.781L52.004,6.098C52.953,5.475 54.202,5.569 55.047,6.327C57.895,8.884 60.298,11.898 62.158,15.244C62.709,16.236 62.523,17.475 61.704,18.261L55.551,24.173C56.054,25.689 56.41,27.25 56.614,28.833L64.724,31.49C65.802,31.844 66.507,32.879 66.441,34.012C66.218,37.833 65.36,41.591 63.903,45.131C63.471,46.18 62.387,46.807 61.262,46.658L52.803,45.533C51.932,46.871 50.934,48.123 49.823,49.269L52.802,57.267C53.198,58.33 52.828,59.527 51.901,60.182C48.774,62.39 45.301,64.062 41.625,65.13C40.535,65.447 39.369,64.99 38.785,64.017L34.39,56.702C32.8,56.855 31.2,56.855 29.61,56.702L25.215,64.017C24.631,64.99 23.465,65.447 22.375,65.13C18.699,64.062 15.226,62.39 12.099,60.182C11.172,59.527 10.802,58.33 11.198,57.267L14.177,49.27C13.066,48.123 12.068,46.871 11.198,45.533L2.738,46.658C1.613,46.807 0.529,46.18 0.097,45.131C-1.36,41.591 -2.218,37.833 -2.441,34.012C-2.507,32.879 -1.802,31.844 -0.724,31.49L7.386,28.833C7.59,27.249 7.946,25.689 8.449,24.174L2.296,18.261C1.477,17.475 1.291,16.236 1.842,15.244C3.702,11.898 6.105,8.884 8.953,6.327C9.798,5.569 11.047,5.475 11.996,6.098L19.129,10.781C20.495,9.953 21.937,9.259 23.435,8.708L24.221,0.21C24.326,-0.92 25.178,-1.838 26.297,-2.025C30.073,-2.658 33.927,-2.658 37.703,-2.025C38.822,-1.838 39.674,-0.92 39.779,0.21ZM32,21.127C25.999,21.127 21.127,25.999 21.127,32C21.127,38.001 25.999,42.873 32,42.873C38.001,42.873 42.873,38.001 42.873,32C42.873,25.999 38.001,21.127 32,21.127Z" style="fill:rgb(161,3,16);"/>
    </g>
    <g>
        <g transform="matrix(0.062791,0.011072,-0.010705,0.060709,5.205925,-7.519421)">
            <path d="M365.022,408.726C367.562,368.684 381.449,333.727 401.292,311.154C417.404,292.826 437.46,282.387 458.951,282.387C490.702,282.387 519.779,306.011 537.003,343.273C560.216,309.671 592.819,291.627 624.088,297.33C645.252,301.19 663.251,315.072 676.041,336.016C691.793,361.81 699.6,398.73 695.379,438.62C708.216,433.249 721.638,431.517 734.915,433.939C756.08,437.798 774.079,451.681 786.869,472.625C804.34,501.233 812.036,543.527 804.39,588.379C796.743,633.232 775.525,670.253 749.648,690.955C730.704,706.111 709.199,712.79 688.035,708.93C680.916,707.631 674.155,705.199 667.83,701.745C670.83,721.61 670.483,740.609 666.944,757.427C661.319,784.161 647.745,805.627 627.189,817.902C590.943,839.546 540.421,826.675 499.456,787.134C452.474,818.716 400.559,822.318 368.498,794.494C350.315,778.713 340.551,755.135 339.5,727.797C338.838,710.599 341.686,691.826 347.976,672.802C341.168,675.067 334.101,676.249 326.872,676.249C305.381,676.249 285.325,665.809 269.213,647.481C247.204,622.446 232.524,582.176 232.524,536.632C232.524,491.087 247.204,450.818 269.213,425.782C285.325,407.454 305.381,397.015 326.872,397.015C340.354,397.015 353.282,401.132 365.022,408.726Z" style="fill:rgb(189,35,14);"/>
        </g>
        <g transform="matrix(0.062791,0.011072,-0.010705,0.060709,5.205925,-7.519421)">
            <path d="M407.403,519.47C407.896,525.082 408.15,530.811 408.15,536.632C408.15,606.227 371.731,662.73 326.872,662.73C282.013,662.73 245.594,606.227 245.594,536.632C245.594,467.036 282.013,410.533 326.872,410.533C346.433,410.533 364.389,421.277 378.421,439.165C377.928,433.553 377.673,427.824 377.673,422.003C377.673,352.408 414.093,295.905 458.951,295.905C493.055,295.905 522.28,328.561 534.334,374.8C553.969,331.429 588.233,304.517 621.818,310.643C665.995,318.699 692.375,380.885 680.691,449.423C679.714,455.155 678.501,460.752 677.073,466.19C693.895,451.094 713.382,443.738 732.646,447.251C776.823,455.308 803.203,517.494 791.519,586.032C779.834,654.57 734.481,703.674 690.304,695.617C646.127,687.56 619.747,625.375 631.431,556.836C632.409,551.104 633.621,545.508 635.049,540.069C618.228,555.166 598.74,562.521 579.477,559.008C553.326,554.239 533.412,530.504 523.938,497.712C509.101,528.304 485.505,548.102 458.951,548.102C439.39,548.102 421.434,537.358 407.403,519.47ZM500.936,769.633C457.267,802.95 407.19,810.427 376.899,784.138C338.236,750.583 346.355,674.64 395.019,614.656C431.617,569.544 480.79,546.223 519.371,551.704C558.285,553.236 602.796,585.034 631.264,636.033C669.118,703.847 664.364,780.094 620.654,806.195C586.409,826.644 538.349,810.287 500.936,769.633Z" style="fill:rgb(255,111,10);"/>
        </g>
    </g>
</svg>
