<?xml version="1.0" encoding="UTF-8" standalone="no"?>
<!DOCTYPE svg PUBLIC "-//W3C//DTD SVG 1.1//EN" "http://www.w3.org/Graphics/SVG/1.1/DTD/svg11.dtd">
<svg width="100%" height="100%" viewBox="0 0 420 500" version="1.1" xmlns="http://www.w3.org/2000/svg" xmlns:xlink="http://www.w3.org/1999/xlink" xml:space="preserve" xmlns:serif="http://www.serif.com/" style="fill-rule:evenodd;clip-rule:evenodd;stroke-linejoin:round;stroke-miterlimit:2;">
    <g transform="matrix(0.731354,0,0,1.035519,7.36381,-311.184714)">
        <path d="M65.247,755.266L51.347,755.266C51.422,754.979 51.461,754.686 51.461,754.389L51.461,372.938C51.461,356.949 82.095,343.771 119.827,343.771L119.827,343.967L461.659,343.967C484.314,343.967 502.679,356.938 502.679,372.938C502.679,372.938 502.679,656.157 502.657,690.936C502.657,692.99 500.811,694.818 498.061,695.487C488.853,697.793 480.291,701.068 472.665,705.177C470.601,706.299 467.813,706.495 465.476,705.682C463.139,704.87 461.659,703.19 461.659,701.35L461.659,387.424C461.659,383.582 459.498,379.898 455.652,377.181C451.805,374.464 446.589,372.938 441.149,372.938L78.275,372.938C84.034,399.203 90.609,417.877 99.317,432.937L99.317,466.839C84.173,451.784 73.594,435.372 65.134,410.442L65.134,540.205C68.67,541.055 72.391,541.896 76.305,542.838C83.379,544.541 91.032,546.467 99.317,549.053L99.317,566.952C86.497,562.265 75.167,559.511 65.134,557.134L65.134,601.556C76.259,602.602 87.652,604.172 99.317,606.98L99.317,624.213C87.629,620.741 76.229,618.873 65.134,617.707L65.134,754.389C65.134,754.689 65.173,754.982 65.247,755.266Z" style="fill:rgb(255,201,28);"/>
    </g>
    <g transform="matrix(0.731354,0,0,1.035519,7.36381,-311.184714)">
        <path d="M228.868,759.218L213.816,759.218C215.077,748.758 215.477,737.319 214.268,725.473C211.07,694.137 196.647,660.087 158.157,633.417C125.28,610.637 94.282,604.296 65.134,601.556L65.134,557.134C90.678,563.186 124.625,571.678 170.193,608.319C223.964,651.555 230.643,719.033 228.868,759.218ZM259.603,759.218L251.433,759.218C252.909,716.168 244.924,644.02 187.315,597.697C139.606,559.334 103.636,549.417 76.305,542.838C72.391,541.896 68.67,541.055 65.134,540.205L65.134,410.442C87.023,474.944 123.094,482.422 215.738,556.917C244.498,580.042 257.411,614.982 262.682,650.061C269.047,692.422 263.972,735.136 259.603,759.218ZM190.963,759.218L71.971,759.218C68.195,759.218 65.134,757.056 65.134,754.389L65.134,617.707C89.42,620.259 115.168,626.177 142.197,644.906C176.317,668.548 188.704,698.853 191.538,726.63C192.71,738.108 192.254,749.174 190.963,759.218ZM78.275,372.938L441.149,372.938C446.589,372.938 451.805,374.464 455.652,377.181C459.498,379.898 461.659,383.582 461.659,387.424L461.659,701.35C461.659,703.19 463.139,704.87 465.476,705.682C467.813,706.495 470.601,706.299 472.665,705.177C480.291,701.068 488.853,697.793 498.061,695.487C500.811,694.818 502.657,692.99 502.657,690.936C502.679,656.157 502.679,372.938 502.679,372.938C502.679,356.938 484.314,343.967 461.659,343.967L119.827,343.967L119.827,343.771C82.095,343.771 51.461,356.949 51.461,372.938L51.461,754.389C51.461,755.67 50.741,756.898 49.459,757.804C48.176,758.709 46.438,759.218 44.624,759.218L37.788,759.218C34.161,759.218 30.683,758.201 28.119,756.39C25.555,754.578 24.114,752.122 24.114,749.561L24.114,372.938C24.114,346.289 67.002,324.653 119.827,324.653L461.659,324.653C499.417,324.653 530.025,346.271 530.025,372.938L530.025,701.276C530.025,701.421 530.021,701.565 530.012,701.708C530.018,701.83 530.022,701.952 530.022,702.075C530.025,702.077 530.025,702.08 530.025,702.083C530.025,706.789 525.221,710.81 518.652,711.602C490.024,714.991 467.405,730.966 462.603,751.185C461.482,755.823 455.79,759.215 449.128,759.215C449.124,759.218 448.175,759.218 447.986,759.218L370.549,759.218L370.549,541.982L383.558,541.982L412.218,520.751L418.714,488.224L400.008,459.62L399.063,459.317L408.525,447.742L412.965,449.553L419.802,441.19L407.961,436.361L401.124,444.724L405.565,446.535L395.937,458.312L366.561,448.873L366.561,437.544L371.689,437.544L371.689,427.887L365.399,427.887L365.399,427.84L359.109,427.84L359.109,437.497L364.237,437.497L364.237,448.827L334.861,458.266L325.234,446.489L329.674,444.678L322.838,436.315L310.996,441.143L317.833,449.506L322.273,447.696L331.735,459.27L330.79,459.574L312.084,488.178L318.58,520.705L347.24,541.936L360.249,541.936L360.249,759.218L282.561,759.218C286.982,733.921 291.745,690.969 285.343,648.363C279.554,609.835 264.448,571.694 232.86,546.295C130.131,463.692 98.951,467.229 78.275,372.938Z" style="fill:rgb(255,111,10);"/>
    </g>
    <g transform="matrix(1,0,0,1,-72.810278,-14.986315)">
        <path d="M343.644,489.986L343.644,264.986L334.129,264.986L313.169,243.002L308.418,209.319L322.099,179.699L322.79,179.385L315.87,167.399L312.622,169.274L307.622,160.614L316.283,155.614L321.283,164.274L318.035,166.149L325.076,178.345L346.56,168.57L346.56,156.838L342.81,156.838L342.81,146.838L347.41,146.838L347.41,146.886L352.01,146.886L352.01,156.886L348.26,156.886L348.26,168.618L369.744,178.393L376.785,166.197L373.538,164.322L378.538,155.662L387.198,160.662L382.198,169.322L378.951,167.447L372.031,179.433L372.722,179.747L386.403,209.367L381.651,243.05L360.691,265.034L351.177,265.034L351.177,489.986L343.644,489.986Z" style="fill:rgb(22,10,64);"/>
    </g>
    <g transform="matrix(1,0,0,1,-72.810278,-14.986315)">
        <path d="M137.421,89.986C152.542,187.626 175.346,183.964 250.477,269.501C273.579,295.802 284.627,335.297 288.861,375.194C293.543,419.313 290.06,463.791 286.826,489.986L270.036,489.986C273.231,465.049 276.943,420.817 272.288,376.953C268.433,340.628 258.989,304.446 237.955,280.499C170.199,203.359 143.819,195.616 127.81,128.823L127.81,94.986C127.81,92.225 130.049,89.986 132.81,89.986L137.421,89.986Z" style="fill:rgb(72,149,222);"/>
    </g>
    <g transform="matrix(1,0,0,1,-72.810278,-14.986315)">
        <path d="M127.81,326.725C149.128,329.562 171.798,336.128 195.843,359.717C223.993,387.334 234.541,422.594 236.88,455.043C237.764,467.309 237.472,479.155 236.549,489.986L219.836,489.986C220.78,479.585 221.113,468.126 220.256,456.241C218.183,427.477 209.124,396.096 184.171,371.614C164.402,352.22 145.572,346.091 127.81,343.449L127.81,326.725Z" style="fill:rgb(72,149,222);"/>
    </g>
    <g transform="matrix(1,0,0,1,-72.810278,-14.986315)">
        <path d="M127.81,263.195C130.396,264.075 133.118,264.945 135.98,265.921C155.969,272.733 182.275,283.003 217.168,322.728C259.3,370.696 265.14,445.407 264.061,489.986L247.558,489.986C248.856,448.375 243.971,378.499 204.646,333.727C171.319,295.785 146.492,286.992 127.81,280.724L127.81,263.195Z" style="fill:rgb(72,149,222);"/>
    </g>
</svg>
